<svg width="228" height="40" viewBox="0 0 228 40" fill="none" xmlns="http://www.w3.org/2000/svg">
<path d="M32.5987 40H7.45729C3.33871 40 0 36.6666 0 32.5538V7.44621C0 3.33339 3.33871 0 7.45729 0H32.5987C36.7173 0 40.056 3.33404 40.056 7.44686V32.5538C40.056 36.6666 36.7173 40 32.5987 40Z" fill="#3CC37E"/>
<path d="M21.2694 23.9516H14.242L7.60687 16.7379L14.242 9.5249H21.2694L14.6024 16.7379L21.2694 23.9516Z" fill="white"/>
<path d="M19.7448 16.3677H26.7728L33.4072 23.5801L26.7728 30.7931H19.7448L26.4124 23.5801L19.7448 16.3677Z" fill="white"/>
<path d="M19.8098 16.2612H26.8378L33.4722 23.4743L26.8378 30.6873H19.8098L26.4774 23.4743L19.8098 16.2612Z" fill="white"/>
<path d="M78.2463 5V8.24806H62.006V18.642H77.4883V21.89H62.006V35.9647H58V5H78.2463Z" fill="#3CC37E"/>
<path d="M81.4686 35.9649V13.2285H84.1751L84.8898 16.1304C86.8816 14.196 89.2784 13.2285 92.0789 13.2285V16.5631C89.365 16.5631 87.1635 17.5232 85.4746 19.4434V35.9656H81.4686V35.9649Z" fill="#3CC37E"/>
<path d="M93.8936 24.5967C93.8936 17.0181 97.502 13.2285 104.721 13.2285C111.938 13.2285 115.548 17.0181 115.548 24.5967C115.548 32.1611 111.938 35.9433 104.721 35.9433C97.5311 35.9433 93.922 32.1611 93.8936 24.5967ZM104.72 32.7169C109.268 32.7169 111.541 29.9813 111.541 24.5102C111.541 19.1547 109.267 16.4766 104.72 16.4766C100.173 16.4766 97.8989 19.1547 97.8989 24.5102C97.8989 29.9813 100.173 32.7169 104.72 32.7169Z" fill="#3CC37E"/>
<path d="M119.852 35.9649V13.2285H122.559L123.273 16.1304C125.598 14.196 128.153 13.2285 130.939 13.2285C136.612 13.2285 139.449 16.0513 139.449 21.6948V35.9649H135.443V21.6299C135.443 18.2514 133.761 16.5624 130.398 16.5624C128.102 16.5624 125.923 17.5225 123.858 19.4427V35.9649H119.852Z" fill="#3CC37E"/>
<path d="M144.836 9.54688H147.348L148.214 13.2276H154.364V16.4757H148.842V29.5328C148.842 31.6552 149.758 32.716 151.592 32.716H154.364V35.964H150.553C146.741 35.964 144.836 33.9215 144.836 29.8364V9.54688Z" fill="#3CC37E"/>
<path d="M167.721 13.2285C174.188 13.2285 177.422 16.4259 177.422 22.8212C177.422 23.7306 177.357 24.7056 177.227 25.7448H161.267C161.267 30.3931 163.981 32.7175 169.409 32.7175C171.993 32.7175 174.288 32.4288 176.295 31.8514V35.0995C174.288 35.6769 171.848 35.9656 168.976 35.9656C161.166 35.9656 157.261 32.0894 157.261 24.3378C157.261 16.9309 160.748 13.2285 167.721 13.2285ZM161.267 22.4095H173.566C173.48 18.4251 171.531 16.4333 167.72 16.4333C163.678 16.4333 161.527 18.4251 161.267 22.4095Z" fill="#3CC37E"/>
<path d="M181.705 35.9649V13.2285H184.411L185.126 16.1304C187.45 14.196 190.005 13.2285 192.791 13.2285C198.464 13.2285 201.301 16.0513 201.301 21.6948V35.9649H197.295V21.6299C197.295 18.2514 195.614 16.5624 192.25 16.5624C189.955 16.5624 187.775 17.5225 185.711 19.4427V35.9649H181.705Z" fill="#3CC37E"/>
<path d="M225.961 34.6003C223.203 35.5097 219.803 35.9647 215.761 35.9647C208.991 35.9647 205.605 32.0236 205.605 24.1415C205.605 16.8658 209.2 13.2276 216.389 13.2276C218.352 13.2276 220.207 13.5887 221.954 14.3108V5H225.96V34.6003H225.961ZM221.955 17.8624C220.338 17.0829 218.49 16.6934 216.411 16.6934C211.834 16.6934 209.547 19.1261 209.547 23.9907C209.547 29.7505 211.835 32.6308 216.411 32.6308C218.49 32.6308 220.338 32.3489 221.955 31.7863V17.8624Z" fill="#3CC37E"/>
</svg>
