<svg width="23" height="23" viewBox="0 0 23 23" fill="none" xmlns="http://www.w3.org/2000/svg">
<path d="M19.6318 3.36833C17.4597 1.19623 14.5718 0 11.5 0C8.4282 0 5.54026 1.19623 3.3682 3.36833C1.19618 5.54039 0 8.42824 0 11.5C0 14.5718 1.19618 17.4596 3.3682 19.6317C5.54026 21.8038 8.4282 23 11.5 23C14.5718 23 17.4597 21.8038 19.6318 19.6317C21.8038 17.4596 23 14.5718 23 11.5C23 8.42824 21.8038 5.54039 19.6318 3.36833ZM11.5 21.6527C10.7429 21.6527 9.90887 20.631 9.26896 18.9195C8.87144 17.8564 8.57051 16.5999 8.37735 15.2268H14.6226C14.4295 16.5999 14.1285 17.8563 13.731 18.9195C13.0912 20.631 12.2571 21.6527 11.5 21.6527ZM8.22591 13.8796C8.1601 13.109 8.12605 12.312 8.12605 11.5C8.12605 10.4308 8.18481 9.38754 8.29797 8.39654H14.702C14.8152 9.38758 14.8739 10.4309 14.8739 11.5C14.8739 12.312 14.8399 13.1089 14.7741 13.8796H8.22591ZM1.34766 11.5C1.34766 10.4306 1.51256 9.38664 1.82904 8.39654H6.9429C6.83464 9.39378 6.7784 10.436 6.7784 11.5C6.7784 12.3092 6.81101 13.1058 6.87413 13.8796H1.62721C1.44303 13.1093 1.34766 12.312 1.34766 11.5ZM11.5 1.34726C12.2571 1.34726 13.0912 2.36898 13.731 4.08045C14.0575 4.95379 14.3189 5.95759 14.509 7.04923H8.49104C8.68106 5.95755 8.94246 4.95375 9.269 4.08045C9.90887 2.36898 10.7428 1.34726 11.5 1.34726ZM16.0571 8.39649H21.1709C21.4874 9.38664 21.6523 10.4305 21.6523 11.5C21.6523 12.312 21.5569 13.1092 21.3728 13.8795H16.1259C16.189 13.1057 16.2216 12.3092 16.2216 11.5C16.2216 10.436 16.1654 9.39374 16.0571 8.39649ZM20.6298 7.04923H15.8746C15.6675 5.78429 15.371 4.61864 14.9934 3.60873C14.7074 2.84375 14.3811 2.19258 14.0231 1.66194C15.7695 2.10662 17.3711 3.0132 18.6787 4.32085C19.4874 5.12956 20.1422 6.05096 20.6298 7.04923ZM4.32126 4.32085C5.62885 3.01324 7.23045 2.10667 8.97687 1.66194C8.61889 2.19258 8.29262 2.84375 8.00661 3.60873C7.62899 4.61864 7.33251 5.78429 7.12537 7.04923H2.37017C2.85784 6.05096 3.51258 5.12956 4.32126 4.32085ZM2.05118 15.2268H7.01801C7.22371 16.7719 7.55802 18.1914 8.00665 19.3913C8.29267 20.1562 8.61894 20.8074 8.97692 21.3381C7.23054 20.8934 5.62889 19.9868 4.3213 18.6792C3.32049 17.6783 2.55498 16.5051 2.05118 15.2268ZM18.6787 18.6792C17.3712 19.9868 15.7696 20.8934 14.0231 21.3381C14.3811 20.8074 14.7074 20.1562 14.9934 19.3913C15.442 18.1914 15.7763 16.7719 15.982 15.2268H20.9488C20.445 16.5051 19.6795 17.6783 18.6787 18.6792Z" fill="white"/>
</svg>
