<svg width="42" height="42" viewBox="0 0 42 42" fill="none" xmlns="http://www.w3.org/2000/svg">
<path d="M33.8855 41.6372H7.75166C3.4705 41.6372 0 38.1674 0 33.8862V7.75098C0 3.46982 3.4705 0 7.75166 0H33.8855C38.1667 0 41.6372 3.4705 41.6372 7.75166V33.8862C41.6372 38.1674 38.1667 41.6372 33.8855 41.6372Z" fill="white"/>
<path d="M22.109 24.9317H14.8042L7.90717 17.4228L14.8042 9.91455H22.109L15.1788 17.4228L22.109 24.9317Z" fill="#3CC37E"/>
<path d="M20.5242 17.0376H27.8296L34.726 24.5452L27.8296 32.0534H20.5242L27.455 24.5452L20.5242 17.0376Z" fill="#3CC37E"/>
<path d="M20.5918 16.9263H27.8972L34.7936 24.4345L27.8972 31.9428H20.5918L27.5227 24.4345L20.5918 16.9263Z" fill="#3CC37E"/>
</svg>
